<svg xmlns="http://www.w3.org/2000/svg" xmlns:xlink="http://www.w3.org/1999/xlink" viewBox="0 0 512 512"><defs><style>.cls-1{fill:url(#linear-gradient);}.cls-2{fill:url(#linear-gradient-2);}.cls-3{fill:url(#linear-gradient-3);}</style><linearGradient id="linear-gradient" x1="132.96" y1="404.41" x2="292.69" y2="161.23" gradientUnits="userSpaceOnUse"><stop offset="0" stop-color="#39c"/><stop offset="1" stop-color="#0169a4"/></linearGradient><linearGradient id="linear-gradient-2" x1="401.93" y1="376.05" x2="270.92" y2="183.27" gradientUnits="userSpaceOnUse"><stop offset="0" stop-color="#4dffda"/><stop offset="1" stop-color="#0169a4"/></linearGradient><linearGradient id="linear-gradient-3" x1="233.91" y1="95.12" x2="308.39" y2="229.72" gradientUnits="userSpaceOnUse"><stop offset="0" stop-color="#59c8ff"/><stop offset="1" stop-color="#4396bf"/></linearGradient></defs><title>Auft Logo - Transparent</title><g id="Layer_2" data-name="Layer 2"><path class="cls-1" d="M376,224.43a60.57,60.57,0,0,0-104.17,6.33.08.08,0,0,0,0,.05L255.89,258.3,194.6,364.46A60.46,60.46,0,0,1,89.88,304L203.43,107.33a60.36,60.36,0,0,1,48.5-30.11,5.44,5.44,0,0,1,.57,0l1.51-.07q.92,0,1.83,0l1.93,0,1.51.07.57,0a60.36,60.36,0,0,1,48.5,30.11Z"/><path class="cls-2" d="M399.77,386.59q-2.68,1.55-5.44,2.79a59.87,59.87,0,0,1-5.59,2.19c-.62.21-1.25.41-1.88.6a57.49,57.49,0,0,1-5.72,1.41c-1.85.36-3.71.64-5.57.82l-6,.3a60.66,60.66,0,0,1-28.11-6.91h0c-1.16-.61-2.29-1.25-3.4-1.93h0c-1.12-.68-2.21-1.4-3.28-2.15a60.09,60.09,0,0,1-17.6-19.25L255.89,258.3l15.88-27.49a.08.08,0,0,1,0-.05A60.61,60.61,0,0,1,376,224.43L421.9,304A60.45,60.45,0,0,1,399.77,386.59Z"/><path class="cls-3" d="M376,224.43a60.57,60.57,0,0,0-104.17,6.33.08.08,0,0,0,0,.05L255.89,258.3l-52.25-90.5a60.46,60.46,0,1,1,104.72-60.46Z"/></g></svg>