<svg id="Layer_3" height="512" viewBox="0 0 64 64" width="512" xmlns="http://www.w3.org/2000/svg"><title>peer to peer</title><g class="nc-icon-wrapper" fill="#ffffff"><path d="M47.754 31.017a15.883 15.883 0 0 0-11.804 4.411A15.863 15.863 0 0 0 31 47v10h2V47c0-3.862 1.538-7.458 4.332-10.126 2.791-2.667 6.446-4.04 10.33-3.859 7.142.329 12.993 6.181 13.322 13.322.179 3.87-1.191 7.538-3.858 10.33-.04.042-.085.078-.126.119v-4.169A4.623 4.623 0 0 0 52.382 48h-.146a2.588 2.588 0 0 1-2.003-.954A5.993 5.993 0 0 0 53 42v-2c0-3.309-2.691-6-6-6s-6 2.691-6 6v2a5.993 5.993 0 0 0 2.767 5.046 2.591 2.591 0 0 1-2.003.954h-.146A4.623 4.623 0 0 0 37 52.618V57a1 1 0 0 0 1 1h17.638c-2.453 1.937-5.45 3-8.638 3h-8c-9.59 0-17.452-7.538-17.973-17H24a1 1 0 0 0 .707-1.707l-7-7a.999.999 0 0 0-1.414 0l-7 7A1 1 0 0 0 10 44h3.024C13.547 54.565 22.308 63 33 63h14c4.414 0 8.523-1.758 11.572-4.951 3.048-3.191 4.613-7.383 4.41-11.803-.376-8.164-7.064-14.853-15.228-15.229zM43 40c0-2.206 1.794-4 4-4s4 1.794 4 4v2c0 2.206-1.794 4-4 4s-4-1.794-4-4zm4 8c.461 0 .908-.057 1.34-.156.304.483.687.896 1.13 1.229-.688.583-1.565.927-2.47.927s-1.782-.344-2.47-.927a4.596 4.596 0 0 0 1.13-1.229c.432.099.879.156 1.34.156zm8 8h-2v-2h-2v2h-8v-2h-2v2h-2v-3.382A2.621 2.621 0 0 1 41.618 50h.146c.257 0 .508-.027.755-.067l.36.36C43.964 51.378 45.466 52 47 52s3.036-.622 4.121-1.707l.36-.36c.248.04.499.067.755.067h.146A2.621 2.621 0 0 1 55 52.618zM15 43a1 1 0 0 0-1-1h-1.586L17 37.414 21.586 42H20a1 1 0 0 0-1 1c0 7.665 4.334 14.337 10.682 17.693C21.336 59.132 15 51.792 15 43z"/><path d="M17.009 33c4.139 0 8.034-1.557 11.041-4.428A15.863 15.863 0 0 0 33 17V7h-2v10c0 3.7-1.425 7.146-4 9.776v-4.157A4.623 4.623 0 0 0 22.382 18h-.146a2.588 2.588 0 0 1-2.003-.954A5.993 5.993 0 0 0 23 12v-2c0-3.309-2.691-6-6-6s-6 2.691-6 6v2a5.993 5.993 0 0 0 2.767 5.046 2.591 2.591 0 0 1-2.003.954h-.146A4.623 4.623 0 0 0 7 22.618v4.127c-2.324-2.384-3.823-5.575-3.984-9.083-.179-3.87 1.191-7.538 3.858-10.33A13.881 13.881 0 0 1 17 3h8c9.59 0 17.452 7.538 17.973 17H40a1 1 0 0 0-.707 1.707l7 7a.999.999 0 0 0 1.414 0l7-7A1 1 0 0 0 54 20h-3.024C50.453 9.435 41.692 1 31 1H17A15.858 15.858 0 0 0 5.428 5.951C2.38 9.142.815 13.334 1.018 17.754c.376 8.164 7.064 14.853 15.229 15.229.254.012.508.017.762.017zM49 21a1 1 0 0 0 1 1h1.586L47 26.586 42.414 22H44a1 1 0 0 0 1-1c0-7.665-4.334-14.337-10.682-17.693C42.664 4.868 49 12.208 49 21zm-23.344 7c-2.639 2.085-5.898 3.138-9.318 2.985-2.972-.137-5.713-1.24-7.933-2.985zM13 10c0-2.206 1.794-4 4-4s4 1.794 4 4v2c0 2.206-1.794 4-4 4s-4-1.794-4-4zm4 8c.461 0 .908-.057 1.34-.156.304.483.687.896 1.13 1.229-.688.583-1.565.927-2.47.927s-1.782-.344-2.47-.927a4.596 4.596 0 0 0 1.13-1.229c.432.099.879.156 1.34.156zm-8 4.618A2.621 2.621 0 0 1 11.618 20h.146c.257 0 .508-.027.755-.067l.36.36C13.964 21.378 15.466 22 17 22s3.036-.622 4.121-1.707l.36-.36c.248.04.499.067.755.067h.146A2.621 2.621 0 0 1 25 22.618V26h-2v-2h-2v2h-8v-2h-2v2H9z"/></g></svg>