<svg xmlns="http://www.w3.org/2000/svg" viewBox="0 0 48 48" width="48" height="48"><title>voice recognition</title><g class="nc-icon-wrapper" stroke-linecap="square" stroke-linejoin="miter" stroke-width="2" fill="#ffffff" stroke="#ffffff"><path d="M2,8V30a4,4,0,0,0,4,4H16l8,10,8-10H42a4,4,0,0,0,4-4V8a4,4,0,0,0-4-4H6A4,4,0,0,0,2,8Z" fill="none" stroke="#ffffff" stroke-miterlimit="10"/><line x1="17" y1="11" x2="17" y2="27" fill="none" stroke-miterlimit="10" data-color="color-2"/><line x1="24" y1="16" x2="24" y2="22" fill="none" stroke-miterlimit="10" data-color="color-2"/><line x1="10" y1="15" x2="10" y2="23" fill="none" stroke-miterlimit="10" data-color="color-2"/><line x1="31" y1="13" x2="31" y2="25" fill="none" stroke-miterlimit="10" data-color="color-2"/><line x1="38" y1="16" x2="38" y2="22" fill="none" stroke-miterlimit="10" data-color="color-2"/></g></svg>